<svg id="Layer_1" enable-background="new 0 0 511.463 511.463" height="512" viewBox="0 0 511.463 511.463" width="512" xmlns="http://www.w3.org/2000/svg"><g><g><path d="m380.88 89.202c-8.613-2.976-26.784-7.713-39.902-11.017-17.441-93.233-155.045-95.445-169.795.561-17.62 4.091-32.581 7.689-40.423 10.394-18.817 6.49-31.459 24.222-31.459 44.123v55.223 189.538c.328 19.554 12.594 37.614 31.427 44.113 8.651 3.001 17.438 5.663 26.287 8.019v6.299c0 31.155 37.453 49.174 61.894 29.786-.479 51.003 76.534 51.061 76.308-.135 24.569 19.622 61.893 1.247 61.893-29.913v-6.752c10.626-2.918 22.431-5.559 31.962-11.134 14.34-8.39 22.577-23.871 23.091-40.283v-189.536-55.223c0-19.891-12.572-37.598-31.283-44.063z" fill="#cff5ff"/><g><path d="m380.88 89.202c-8.613-2.976-26.784-7.713-39.902-11.017-9.895-52.895-58.465-76.477-101.338-69.463 33.201 5.405 63.723 28.757 71.338 69.463 13.118 3.304 31.29 8.041 39.902 11.017 18.711 6.465 31.282 24.172 31.282 44.062v55.223 189.538c-.514 16.412-8.751 31.893-23.091 40.283-9.531 5.575-21.336 8.217-31.962 11.134v6.752c0 16.391-10.332 29.234-23.699 34.88 23.878 10.589 53.699-7.025 53.699-34.88v-6.752c10.626-2.917 22.431-5.559 31.962-11.134 14.34-8.39 22.577-23.871 23.091-40.283v-189.537-55.223c.001-19.891-12.571-37.598-31.282-44.063z" fill="#b8f0ff"/></g><path d="m211.855 57.76c20.417-28.407 67.336-28.407 87.753.001 5.953 8.364-1.33 19.193-12.503 18.532-20.892-1.237-41.856-1.237-62.748 0-11.172.661-18.455-10.169-12.502-18.533z" fill="#fff"/><path d="m257.063 480.987c-7.286 0-13.213-5.943-13.213-13.247v-49.84c-11.847-.341-23.717-1.411-35.469-2.943v21.5c0 17.02-26.425 17.021-26.425 0v-26.03c-14.578-2.998-29.043-7.061-43.107-11.913-8.737-3.015-14.607-11.248-14.607-20.487v-164.552h262.979v164.551c0 9.239-5.87 17.472-14.607 20.487-13.241 4.568-26.769 8.31-40.446 11.333v26.35c0 16.558-26.425 17.327-26.425 0v-21.608c-11.737 1.705-23.62 2.707-35.468 3.223v49.93c0 7.303-5.927 13.246-13.212 13.246z" fill="#ff5e57"/><g><path d="m352.187 355.888h-192.911l.102-212.062h192.809z" fill="#fff6db"/><path d="m322.187 143.826h30v212.063h-30z" fill="#ffeebd"/><path d="m159.378 143.826h192.809v135.247h-192.809z" fill="#ffe354"/><path d="m322.187 143.826h30v135.247h-30z" fill="#f7d731"/></g></g><g fill="#060606"><path d="m412.163 153.857c4.143 0 7.5-3.358 7.5-7.5v-13.093c0-23.086-14.602-43.643-36.334-51.151-7.843-2.71-23.099-6.769-35.979-10.051-5.168-21.984-17.046-40.331-34.551-53.271-16.86-12.463-38.135-19.13-59.871-18.779-21.125.343-41.34 7.374-56.919 19.797-16.177 12.899-26.946 31.061-31.342 52.754-17.11 4.003-29.247 7.036-36.352 9.486-21.84 7.533-36.514 28.114-36.514 51.214v244.761c0 .042 0 .084.001.125.388 23.155 15.048 43.681 36.469 51.073 6.84 2.373 13.964 4.604 21.245 6.654v.578c0 17.289 9.947 32.834 25.96 40.571 12.092 5.842 25.522 6.221 37.228 1.449 10.261 44.313 78.089 43.693 88.627-.134 11.671 4.821 25.072 4.493 37.134-1.31 16.127-7.759 26.146-23.408 26.146-40.838v-1.002c9.21-2.458 19.507-5.297 28.249-10.411 16.165-9.458 26.185-26.849 26.801-46.521.003-.078.004-.157.004-.235v-192.362c0-9.697-15-9.697-15 0v192.242c-.487 14.436-7.727 27.114-19.379 33.932-7.294 4.267-16.544 6.733-25.489 9.118-7.889 2.101-11.771 6.831-10.186 15.242 0 11.614-6.763 22.083-17.648 27.321-10.932 5.259-22.917 4.037-32.063-3.269-4.832-3.861-12.208-.29-12.181 5.894.176 39.757-61.685 40.188-61.309.172.059-6.19-7.311-9.793-12.161-5.946-9.054 7.182-21.411 8.391-32.247 3.156-10.786-5.211-17.486-15.582-17.486-27.065 1.002-4.783.006-12.063-5.571-13.547-8.863-2.359-17.529-5.002-25.77-7.861-15.476-5.34-26.069-20.241-26.374-37.091v-244.694c0-16.703 10.611-31.586 26.405-37.033 7.913-2.729 24.628-6.685 39.674-10.179 2.987-.693 5.251-3.136 5.717-6.167 7.237-47.107 44.697-64.389 74.576-64.875 33.955-.522 71.95 19.196 80.434 64.553.538 2.878 2.701 5.179 5.541 5.894 13.348 3.361 30.999 7.969 39.284 10.833 15.69 5.421 26.232 20.28 26.232 36.974v13.093c-.001 4.142 3.357 7.499 7.499 7.499z"/><path d="m224.801 83.78c20.524-1.215 41.336-1.215 61.861 0 15.778.934 29.227-16.078 19.036-30.396-10.993-15.296-29.672-24.429-49.966-24.429-.001 0 0 0-.001 0-20.292 0-38.973 9.133-49.967 24.428-9.405 14.47 2.685 31.373 19.037 30.397zm-6.847-21.655c8.185-11.378 22.306-18.17 37.778-18.17 15.478 0 29.603 6.797 37.766 18.154 2.756 3.871-2.647 6.902-5.949 6.697-10.558-.625-21.186-.938-31.817-.938-10.629 0-21.262.313-31.817.938-3.268.187-8.716-2.81-5.961-6.681z"/><path d="m318.731 456.404c11.937 0 20.938-8.688 20.938-20.208v-20.373c12.229-2.897 24.109-6.327 35.393-10.219 11.76-4.058 19.66-15.141 19.66-27.577v-164.552c0-4.142-3.357-7.5-7.5-7.5h-27.534v-62.149c0-4.142-3.357-7.5-7.5-7.5h-192.81c-4.084 0-7.498 3.417-7.5 7.497l-.03 62.152h-27.607c-4.142 0-7.5 3.358-7.5 7.5v92.525c0 9.697 15 9.697 15 0v-85.025h20.1l-.065 134.91c.427 4.573 2.927 7.074 7.5 7.503h192.91c4.143 0 7.5-3.358 7.5-7.5v-76.815-58.098h20.034v157.051c0 6.042-3.839 11.426-9.553 13.397-12.543 4.327-25.873 8.062-39.618 11.099-3.436.759-5.882 3.805-5.882 7.323v26.35c0 6.88-11.425 6.755-11.425 0v-21.608c-.598-5.087-3.457-7.562-8.577-7.422-10.864 1.578-22.22 2.608-34.718 3.151-4.012.175-7.174 3.478-7.174 7.493v49.93c0 7.424-11.424 7.423-11.424 0v-49.839c0-4.058-3.228-7.38-7.284-7.497-10.875-.313-22.23-1.256-34.715-2.884-5.068-.077-7.891 2.402-8.47 7.437v21.5c0 7.101-11.425 7.101-11.425 0v-26.03c0-3.56-2.502-6.629-5.989-7.346-13.778-2.833-27.966-6.755-42.171-11.657-5.715-1.972-9.554-7.356-9.554-13.397v-35.026c0-9.697-15-9.697-15 0v35.026c0 12.437 7.901 23.519 19.661 27.577 12.771 4.406 25.542 8.056 38.053 10.878v19.976c0 26.093 41.425 26.148 41.425 0v-13.042c7.101.783 13.882 1.342 20.469 1.687v42.638c0 26.627 41.424 26.668 41.424 0v-42.808c7.111-.429 13.894-1.023 20.469-1.796v13.06c.001 13.266 10.308 20.208 20.489 20.208zm25.956-305.078v120.247h-177.809v-120.247zm-177.907 197.062.03-61.815h177.877v61.815z"/><path d="m212.609 249.838c3.872 1.472 8.203-.474 9.675-4.346l4.019-10.574h27.42l3.974 10.553c3.35 8.897 17.453 3.783 14.037-5.286l-23.3-61.875c-2.88-7.521-13.773-7.619-16.656-.019l-23.515 61.872c-1.472 3.872.474 8.203 4.346 9.675zm27.467-51.159 7.998 21.239h-16.07z"/><path d="m272.657 199.272h4.458v4.482c0 9.697 15 9.697 15 0v-4.482h4.176c9.697 0 9.697-15 0-15h-4.176v-4.201c0-9.697-15-9.697-15 0v4.201h-4.458c-9.697 0-9.697 15 0 15z"/><path d="m308.188 309.189h-104.912c-4.142 0-7.5 3.358-7.5 7.5s3.358 7.5 7.5 7.5h104.912c4.143 0 7.5-3.358 7.5-7.5s-3.358-7.5-7.5-7.5z"/></g></g></svg>